<mxfile host="Electron" modified="2024-04-10T00:08:10.743Z" agent="Mozilla/5.0 (X11; Linux x86_64) AppleWebKit/537.36 (KHTML, like Gecko) draw.io/24.0.4 Chrome/120.0.6099.109 Electron/28.1.0 Safari/537.36" etag="_-KPhOZUpz48mxQ2NIxD" version="24.0.4" type="device">
  <diagram name="Page-1" id="mX2h6JksRinRSsMRI6-A">
    <mxGraphModel dx="420" dy="253" grid="1" gridSize="10" guides="1" tooltips="1" connect="1" arrows="1" fold="1" page="1" pageScale="1" pageWidth="827" pageHeight="1169" math="0" shadow="0">
      <root>
        <mxCell id="0" />
        <mxCell id="1" parent="0" />
        <mxCell id="oQ6gl76hAbbXNXq-nnLv-1" value="" style="rounded=0;whiteSpace=wrap;html=1;fillColor=#f5f5f5;fontColor=#333333;strokeColor=#666666;" parent="1" vertex="1">
          <mxGeometry x="100" y="110" width="620" height="630" as="geometry" />
        </mxCell>
        <mxCell id="q5mX6k2dQ04L62NkyDgz-12" style="edgeStyle=orthogonalEdgeStyle;rounded=0;orthogonalLoop=1;jettySize=auto;html=1;exitX=0;exitY=0.565;exitDx=0;exitDy=0;entryX=0;entryY=0.5;entryDx=0;entryDy=0;exitPerimeter=0;" parent="1" source="oQ6gl76hAbbXNXq-nnLv-1" target="q5mX6k2dQ04L62NkyDgz-11" edge="1">
          <mxGeometry relative="1" as="geometry">
            <Array as="points">
              <mxPoint x="360" y="465" />
            </Array>
          </mxGeometry>
        </mxCell>
        <mxCell id="q5mX6k2dQ04L62NkyDgz-13" value="csr_op" style="edgeLabel;html=1;align=center;verticalAlign=middle;resizable=0;points=[];" parent="q5mX6k2dQ04L62NkyDgz-12" vertex="1" connectable="0">
          <mxGeometry x="-0.669" y="-1" relative="1" as="geometry">
            <mxPoint x="-23" y="-2" as="offset" />
          </mxGeometry>
        </mxCell>
        <mxCell id="oQ6gl76hAbbXNXq-nnLv-31" value="&lt;font style=&quot;font-size: 24px;&quot;&gt;LETC Core Stage W&lt;/font&gt;" style="text;html=1;strokeColor=none;fillColor=none;align=center;verticalAlign=middle;whiteSpace=wrap;rounded=0;" parent="1" vertex="1">
          <mxGeometry x="100" y="110" width="240" height="30" as="geometry" />
        </mxCell>
        <mxCell id="q5mX6k2dQ04L62NkyDgz-23" style="edgeStyle=orthogonalEdgeStyle;rounded=0;orthogonalLoop=1;jettySize=auto;html=1;entryX=1;entryY=0.5;entryDx=0;entryDy=0;" parent="1" edge="1">
          <mxGeometry relative="1" as="geometry">
            <mxPoint x="210" y="347" as="sourcePoint" />
            <mxPoint x="720" y="422" as="targetPoint" />
            <Array as="points">
              <mxPoint x="210" y="422" />
            </Array>
          </mxGeometry>
        </mxCell>
        <mxCell id="q5mX6k2dQ04L62NkyDgz-24" value="csr_explicit_wdata" style="edgeLabel;html=1;align=center;verticalAlign=middle;resizable=0;points=[];" parent="q5mX6k2dQ04L62NkyDgz-23" vertex="1" connectable="0">
          <mxGeometry x="0.7709" y="-1" relative="1" as="geometry">
            <mxPoint as="offset" />
          </mxGeometry>
        </mxCell>
        <mxCell id="q5mX6k2dQ04L62NkyDgz-1" value="rd&lt;div&gt;mux&lt;/div&gt;" style="shape=trapezoid;perimeter=trapezoidPerimeter;whiteSpace=wrap;html=1;fixedSize=1;direction=south;" parent="1" vertex="1">
          <mxGeometry x="380" y="250" width="60" height="130" as="geometry" />
        </mxCell>
        <mxCell id="q5mX6k2dQ04L62NkyDgz-2" style="edgeStyle=orthogonalEdgeStyle;rounded=0;orthogonalLoop=1;jettySize=auto;html=1;exitX=-0.001;exitY=0.192;exitDx=0;exitDy=0;entryX=0;entryY=0.5;entryDx=0;entryDy=0;exitPerimeter=0;" parent="1" source="oQ6gl76hAbbXNXq-nnLv-1" target="q5mX6k2dQ04L62NkyDgz-1" edge="1">
          <mxGeometry relative="1" as="geometry">
            <Array as="points">
              <mxPoint x="99" y="230" />
              <mxPoint x="410" y="230" />
            </Array>
          </mxGeometry>
        </mxCell>
        <mxCell id="q5mX6k2dQ04L62NkyDgz-3" value="rd_src" style="edgeLabel;html=1;align=center;verticalAlign=middle;resizable=0;points=[];" parent="q5mX6k2dQ04L62NkyDgz-2" vertex="1" connectable="0">
          <mxGeometry x="-0.7048" y="-1" relative="1" as="geometry">
            <mxPoint x="-29" y="-2" as="offset" />
          </mxGeometry>
        </mxCell>
        <mxCell id="q5mX6k2dQ04L62NkyDgz-4" style="edgeStyle=orthogonalEdgeStyle;rounded=0;orthogonalLoop=1;jettySize=auto;html=1;exitX=0;exitY=0.274;exitDx=0;exitDy=0;entryX=0.25;entryY=1;entryDx=0;entryDy=0;exitPerimeter=0;" parent="1" source="oQ6gl76hAbbXNXq-nnLv-1" target="q5mX6k2dQ04L62NkyDgz-1" edge="1">
          <mxGeometry relative="1" as="geometry">
            <Array as="points">
              <mxPoint x="360" y="283" />
              <mxPoint x="360" y="283" />
            </Array>
          </mxGeometry>
        </mxCell>
        <mxCell id="q5mX6k2dQ04L62NkyDgz-5" value="old_csr_value" style="edgeLabel;html=1;align=center;verticalAlign=middle;resizable=0;points=[];" parent="q5mX6k2dQ04L62NkyDgz-4" vertex="1" connectable="0">
          <mxGeometry x="-0.7143" y="-2" relative="1" as="geometry">
            <mxPoint as="offset" />
          </mxGeometry>
        </mxCell>
        <mxCell id="q5mX6k2dQ04L62NkyDgz-6" style="edgeStyle=orthogonalEdgeStyle;rounded=0;orthogonalLoop=1;jettySize=auto;html=1;exitX=0;exitY=0.324;exitDx=0;exitDy=0;entryX=0.5;entryY=1;entryDx=0;entryDy=0;exitPerimeter=0;" parent="1" source="oQ6gl76hAbbXNXq-nnLv-1" target="q5mX6k2dQ04L62NkyDgz-1" edge="1">
          <mxGeometry relative="1" as="geometry">
            <Array as="points">
              <mxPoint x="100" y="314" />
              <mxPoint x="360" y="315" />
            </Array>
          </mxGeometry>
        </mxCell>
        <mxCell id="q5mX6k2dQ04L62NkyDgz-7" value="memory_rdata" style="edgeLabel;html=1;align=center;verticalAlign=middle;resizable=0;points=[];" parent="q5mX6k2dQ04L62NkyDgz-6" vertex="1" connectable="0">
          <mxGeometry x="-0.7898" y="2" relative="1" as="geometry">
            <mxPoint x="10" y="3" as="offset" />
          </mxGeometry>
        </mxCell>
        <mxCell id="q5mX6k2dQ04L62NkyDgz-8" style="edgeStyle=orthogonalEdgeStyle;rounded=0;orthogonalLoop=1;jettySize=auto;html=1;exitX=0.001;exitY=0.377;exitDx=0;exitDy=0;entryX=0.75;entryY=1;entryDx=0;entryDy=0;exitPerimeter=0;" parent="1" source="oQ6gl76hAbbXNXq-nnLv-1" target="q5mX6k2dQ04L62NkyDgz-1" edge="1">
          <mxGeometry relative="1" as="geometry">
            <Array as="points">
              <mxPoint x="360" y="348" />
              <mxPoint x="360" y="348" />
            </Array>
          </mxGeometry>
        </mxCell>
        <mxCell id="q5mX6k2dQ04L62NkyDgz-9" value="alu_result" style="edgeLabel;html=1;align=center;verticalAlign=middle;resizable=0;points=[];" parent="q5mX6k2dQ04L62NkyDgz-8" vertex="1" connectable="0">
          <mxGeometry x="-0.8374" y="-1" relative="1" as="geometry">
            <mxPoint x="7" as="offset" />
          </mxGeometry>
        </mxCell>
        <mxCell id="q5mX6k2dQ04L62NkyDgz-10" style="edgeStyle=orthogonalEdgeStyle;rounded=0;orthogonalLoop=1;jettySize=auto;html=1;exitX=0.5;exitY=0;exitDx=0;exitDy=0;entryX=1;entryY=0.325;entryDx=0;entryDy=0;entryPerimeter=0;" parent="1" source="q5mX6k2dQ04L62NkyDgz-1" target="oQ6gl76hAbbXNXq-nnLv-1" edge="1">
          <mxGeometry relative="1" as="geometry">
            <Array as="points">
              <mxPoint x="720" y="315" />
            </Array>
          </mxGeometry>
        </mxCell>
        <mxCell id="q5mX6k2dQ04L62NkyDgz-14" value="rd_rdata" style="edgeLabel;html=1;align=center;verticalAlign=middle;resizable=0;points=[];" parent="q5mX6k2dQ04L62NkyDgz-10" vertex="1" connectable="0">
          <mxGeometry x="0.6687" y="2" relative="1" as="geometry">
            <mxPoint as="offset" />
          </mxGeometry>
        </mxCell>
        <mxCell id="q5mX6k2dQ04L62NkyDgz-11" value="&lt;div&gt;== ..._ACCESS&lt;/div&gt;" style="ellipse;whiteSpace=wrap;html=1;aspect=fixed;" parent="1" vertex="1">
          <mxGeometry x="360" y="430" width="70" height="70" as="geometry" />
        </mxCell>
        <mxCell id="q5mX6k2dQ04L62NkyDgz-15" value="&lt;div&gt;&lt;br&gt;&lt;/div&gt;" style="edgeStyle=orthogonalEdgeStyle;rounded=0;orthogonalLoop=1;jettySize=auto;html=1;entryX=0;entryY=0.75;entryDx=0;entryDy=0;entryPerimeter=0;" parent="1" edge="1" target="gqPhepEkpPK0c6oKJPle-1">
          <mxGeometry relative="1" as="geometry">
            <mxPoint x="100" y="190" as="sourcePoint" />
            <mxPoint x="720" y="210.76999999999998" as="targetPoint" />
            <Array as="points">
              <mxPoint x="99" y="190" />
            </Array>
          </mxGeometry>
        </mxCell>
        <mxCell id="q5mX6k2dQ04L62NkyDgz-16" value="rd_we" style="edgeLabel;html=1;align=center;verticalAlign=middle;resizable=0;points=[];" parent="q5mX6k2dQ04L62NkyDgz-15" vertex="1" connectable="0">
          <mxGeometry x="-0.669" y="-1" relative="1" as="geometry">
            <mxPoint x="208" y="-2" as="offset" />
          </mxGeometry>
        </mxCell>
        <mxCell id="q5mX6k2dQ04L62NkyDgz-20" value="To&lt;div&gt;RF&lt;/div&gt;" style="ellipse;shape=cloud;whiteSpace=wrap;html=1;" parent="1" vertex="1">
          <mxGeometry x="720" y="160" width="140" height="175" as="geometry" />
        </mxCell>
        <mxCell id="q5mX6k2dQ04L62NkyDgz-21" style="edgeStyle=orthogonalEdgeStyle;rounded=0;orthogonalLoop=1;jettySize=auto;html=1;exitX=1;exitY=0.5;exitDx=0;exitDy=0;exitPerimeter=0;" parent="1" source="gqPhepEkpPK0c6oKJPle-3" edge="1">
          <mxGeometry relative="1" as="geometry">
            <mxPoint x="720" y="480" as="targetPoint" />
            <Array as="points">
              <mxPoint x="710" y="480" />
              <mxPoint x="710" y="480" />
            </Array>
          </mxGeometry>
        </mxCell>
        <mxCell id="q5mX6k2dQ04L62NkyDgz-22" value="csr_explicit_wen" style="edgeLabel;html=1;align=center;verticalAlign=middle;resizable=0;points=[];" parent="q5mX6k2dQ04L62NkyDgz-21" vertex="1" connectable="0">
          <mxGeometry x="0.5366" y="1" relative="1" as="geometry">
            <mxPoint x="-17" y="-14" as="offset" />
          </mxGeometry>
        </mxCell>
        <mxCell id="q5mX6k2dQ04L62NkyDgz-25" value="" style="edgeStyle=orthogonalEdgeStyle;rounded=0;orthogonalLoop=1;jettySize=auto;html=1;exitX=0;exitY=0.565;exitDx=0;exitDy=0;entryX=1.002;entryY=0.479;entryDx=0;entryDy=0;exitPerimeter=0;entryPerimeter=0;" parent="1" edge="1">
          <mxGeometry relative="1" as="geometry">
            <mxPoint x="98.76" y="550" as="sourcePoint" />
            <mxPoint x="720" y="550.77" as="targetPoint" />
            <Array as="points">
              <mxPoint x="358.76" y="550" />
            </Array>
          </mxGeometry>
        </mxCell>
        <mxCell id="q5mX6k2dQ04L62NkyDgz-26" value="csr_idx" style="edgeLabel;html=1;align=center;verticalAlign=middle;resizable=0;points=[];" parent="q5mX6k2dQ04L62NkyDgz-25" vertex="1" connectable="0">
          <mxGeometry x="-0.669" y="-1" relative="1" as="geometry">
            <mxPoint x="-82" y="-2" as="offset" />
          </mxGeometry>
        </mxCell>
        <mxCell id="q5mX6k2dQ04L62NkyDgz-27" value="csr_explicit_widx" style="edgeLabel;html=1;align=center;verticalAlign=middle;resizable=0;points=[];" parent="q5mX6k2dQ04L62NkyDgz-25" vertex="1" connectable="0">
          <mxGeometry x="0.7601" relative="1" as="geometry">
            <mxPoint as="offset" />
          </mxGeometry>
        </mxCell>
        <mxCell id="q5mX6k2dQ04L62NkyDgz-32" style="edgeStyle=orthogonalEdgeStyle;rounded=0;orthogonalLoop=1;jettySize=auto;html=1;exitX=0.55;exitY=0.95;exitDx=0;exitDy=0;exitPerimeter=0;entryX=0.75;entryY=0;entryDx=0;entryDy=0;fillColor=#ffe6cc;strokeColor=#d79b00;" parent="1" source="q5mX6k2dQ04L62NkyDgz-28" target="oQ6gl76hAbbXNXq-nnLv-1" edge="1">
          <mxGeometry relative="1" as="geometry">
            <Array as="points">
              <mxPoint x="797" y="620" />
              <mxPoint x="565" y="620" />
            </Array>
          </mxGeometry>
        </mxCell>
        <mxCell id="q5mX6k2dQ04L62NkyDgz-33" value="csr_explicit_will" style="edgeLabel;html=1;align=center;verticalAlign=middle;resizable=0;points=[];" parent="q5mX6k2dQ04L62NkyDgz-32" vertex="1" connectable="0">
          <mxGeometry x="-0.4667" y="-2" relative="1" as="geometry">
            <mxPoint as="offset" />
          </mxGeometry>
        </mxCell>
        <mxCell id="q5mX6k2dQ04L62NkyDgz-34" value="illegal_instr_exception&lt;div&gt;(to TGHM)&lt;/div&gt;" style="edgeLabel;html=1;align=center;verticalAlign=middle;resizable=0;points=[];" parent="q5mX6k2dQ04L62NkyDgz-32" vertex="1" connectable="0">
          <mxGeometry x="0.9258" relative="1" as="geometry">
            <mxPoint as="offset" />
          </mxGeometry>
        </mxCell>
        <mxCell id="q5mX6k2dQ04L62NkyDgz-28" value="To&lt;div&gt;CSRs&lt;/div&gt;" style="ellipse;shape=cloud;whiteSpace=wrap;html=1;" parent="1" vertex="1">
          <mxGeometry x="720" y="380" width="140" height="200" as="geometry" />
        </mxCell>
        <mxCell id="q5mX6k2dQ04L62NkyDgz-29" value="r" style="edgeStyle=orthogonalEdgeStyle;rounded=0;orthogonalLoop=1;jettySize=auto;html=1;exitX=0;exitY=0.565;exitDx=0;exitDy=0;entryX=1.002;entryY=0.479;entryDx=0;entryDy=0;exitPerimeter=0;entryPerimeter=0;" parent="1" edge="1">
          <mxGeometry relative="1" as="geometry">
            <mxPoint x="98.76" y="220" as="sourcePoint" />
            <mxPoint x="720" y="220.76999999999998" as="targetPoint" />
            <Array as="points">
              <mxPoint x="358.76" y="220" />
            </Array>
          </mxGeometry>
        </mxCell>
        <mxCell id="q5mX6k2dQ04L62NkyDgz-30" value="rd_idx" style="edgeLabel;html=1;align=center;verticalAlign=middle;resizable=0;points=[];" parent="q5mX6k2dQ04L62NkyDgz-29" vertex="1" connectable="0">
          <mxGeometry x="-0.669" y="-1" relative="1" as="geometry">
            <mxPoint x="208" y="-2" as="offset" />
          </mxGeometry>
        </mxCell>
        <mxCell id="q5mX6k2dQ04L62NkyDgz-35" value="For now we won&#39;t check for illegal CSR accesses&lt;div&gt;&lt;div&gt;&lt;/div&gt;&lt;/div&gt;" style="shape=note;size=20;whiteSpace=wrap;html=1;fillColor=#fff2cc;strokeColor=#d6b656;" parent="1" vertex="1">
          <mxGeometry x="390" y="610" width="130" height="110" as="geometry" />
        </mxCell>
        <mxCell id="gqPhepEkpPK0c6oKJPle-1" value="" style="shape=or;whiteSpace=wrap;html=1;" vertex="1" parent="1">
          <mxGeometry x="450" y="130" width="60" height="80" as="geometry" />
        </mxCell>
        <mxCell id="gqPhepEkpPK0c6oKJPle-2" style="edgeStyle=orthogonalEdgeStyle;rounded=0;orthogonalLoop=1;jettySize=auto;html=1;exitX=1;exitY=0.5;exitDx=0;exitDy=0;exitPerimeter=0;" edge="1" parent="1" source="gqPhepEkpPK0c6oKJPle-1">
          <mxGeometry relative="1" as="geometry">
            <mxPoint x="720" y="170" as="targetPoint" />
          </mxGeometry>
        </mxCell>
        <mxCell id="gqPhepEkpPK0c6oKJPle-8" value="rd_we" style="edgeLabel;html=1;align=center;verticalAlign=middle;resizable=0;points=[];" vertex="1" connectable="0" parent="gqPhepEkpPK0c6oKJPle-2">
          <mxGeometry x="0.5819" y="-2" relative="1" as="geometry">
            <mxPoint x="14" y="-2" as="offset" />
          </mxGeometry>
        </mxCell>
        <mxCell id="gqPhepEkpPK0c6oKJPle-7" style="edgeStyle=orthogonalEdgeStyle;rounded=0;orthogonalLoop=1;jettySize=auto;html=1;exitX=0;exitY=0.75;exitDx=0;exitDy=0;exitPerimeter=0;entryX=0;entryY=0.75;entryDx=0;entryDy=0;entryPerimeter=0;fillColor=#d5e8d4;strokeColor=#82b366;" edge="1" parent="1" target="gqPhepEkpPK0c6oKJPle-3">
          <mxGeometry relative="1" as="geometry">
            <mxPoint x="250" y="160" as="sourcePoint" />
            <Array as="points">
              <mxPoint x="250" y="510" />
              <mxPoint x="440" y="510" />
              <mxPoint x="440" y="500" />
            </Array>
          </mxGeometry>
        </mxCell>
        <mxCell id="gqPhepEkpPK0c6oKJPle-3" value="" style="shape=or;whiteSpace=wrap;html=1;" vertex="1" parent="1">
          <mxGeometry x="470" y="440" width="60" height="80" as="geometry" />
        </mxCell>
        <mxCell id="gqPhepEkpPK0c6oKJPle-4" style="edgeStyle=orthogonalEdgeStyle;rounded=0;orthogonalLoop=1;jettySize=auto;html=1;exitX=1;exitY=0.5;exitDx=0;exitDy=0;entryX=0;entryY=0.25;entryDx=0;entryDy=0;entryPerimeter=0;" edge="1" parent="1" source="q5mX6k2dQ04L62NkyDgz-11" target="gqPhepEkpPK0c6oKJPle-3">
          <mxGeometry relative="1" as="geometry" />
        </mxCell>
        <mxCell id="gqPhepEkpPK0c6oKJPle-5" style="edgeStyle=orthogonalEdgeStyle;rounded=0;orthogonalLoop=1;jettySize=auto;html=1;exitX=-0.001;exitY=0.08;exitDx=0;exitDy=0;exitPerimeter=0;entryX=0;entryY=0.25;entryDx=0;entryDy=0;entryPerimeter=0;fillColor=#d5e8d4;strokeColor=#82b366;" edge="1" parent="1" source="oQ6gl76hAbbXNXq-nnLv-1" target="gqPhepEkpPK0c6oKJPle-1">
          <mxGeometry relative="1" as="geometry">
            <Array as="points">
              <mxPoint x="260" y="160" />
              <mxPoint x="430" y="160" />
              <mxPoint x="430" y="150" />
            </Array>
          </mxGeometry>
        </mxCell>
        <mxCell id="gqPhepEkpPK0c6oKJPle-6" value="valid" style="edgeLabel;html=1;align=center;verticalAlign=middle;resizable=0;points=[];" vertex="1" connectable="0" parent="gqPhepEkpPK0c6oKJPle-5">
          <mxGeometry x="-0.783" relative="1" as="geometry">
            <mxPoint x="-19" as="offset" />
          </mxGeometry>
        </mxCell>
      </root>
    </mxGraphModel>
  </diagram>
</mxfile>
